<?xml version="1.0" encoding="UTF-8"?>
<svg width="324px" height="92px" viewBox="0 0 324 92" version="1.1" xmlns="http://www.w3.org/2000/svg" xmlns:xlink="http://www.w3.org/1999/xlink">
    <title>Group</title>
    <defs>
        <linearGradient x1="50%" y1="0%" x2="50%" y2="100%" id="linearGradient-1">
            <stop stop-color="#F2024C" offset="0%"></stop>
            <stop stop-color="#E00178" offset="100%"></stop>
        </linearGradient>
        <linearGradient x1="0%" y1="41.5736879%" x2="71.6636783%" y2="58.4263121%" id="linearGradient-2">
            <stop stop-color="#F2024C" offset="0%"></stop>
            <stop stop-color="#E10179" offset="100%"></stop>
        </linearGradient>
        <linearGradient x1="0%" y1="44.068853%" x2="70.0440768%" y2="55.8340896%" id="linearGradient-3">
            <stop stop-color="#F2024C" offset="0%"></stop>
            <stop stop-color="#E00178" offset="100%"></stop>
        </linearGradient>
    </defs>
    <g id="Page-1" stroke="none" stroke-width="1" fill="none" fill-rule="evenodd">
        <g id="Group" transform="translate(1.000000, 6.000000)" fill-rule="nonzero">
            <path d="M202.20315,-2.85150786 C200.242803,-2.85150786 192.461519,-1.306672 187.418269,0.630984626 C182.359174,2.57472913 177.923413,5.38697242 174.107923,9.0629267 C170.29565,12.7357812 167.265439,17.2467758 165.037377,22.6099049 C162.837544,27.9050835 161.71674,33.9685752 161.71674,40.8094755 C161.71674,47.7329413 162.819375,53.7947757 164.976491,59.0055703 C167.175349,64.3171969 170.204609,68.7272366 174.04035,72.2527954 C177.80509,75.7130939 181.475466,77.486536 187.281435,80.0526864 C193.007832,82.5836665 201.401334,82.7079482 202.148401,82.7101975 L228.16486,82.7103017 L231.362001,56.4975774 L223.717773,50.7734704 L223.717773,31.0134624 L198.383393,31.0134624 L197.223636,53.417632 L208.494127,53.417632 L207.959108,58.9869418 C207.194774,59.1943122 206.286573,59.3692412 205.851767,59.3692412 C199.992296,59.3692412 195.567277,57.943055 192.802267,54.6861917 C189.934571,51.3083768 188.640916,46.4070572 188.640916,40.1064397 C188.640916,37.0233077 189.036086,34.2523948 189.854131,31.7986035 C190.626556,29.48165 191.703399,27.5187826 193.115395,25.9283481 C194.495916,24.3733655 196.10458,23.1716796 197.945727,22.3291905 C199.782968,21.4884886 201.785732,21.0779835 203.949569,21.0779835 C204.450466,21.0779835 205.011876,21.0601202 205.619301,21.0400863 C208.757111,20.9365961 213.596779,20.5019372 216.599823,24.3637787 L236.566279,7.61681896 C228.848369,-3.72155314 207.941243,-3.11607203 202.921133,-2.88097394 C202.580625,-2.86502755 202.336166,-2.85150786 202.20315,-2.85150786 Z M103.370862,-0.857495479 C107.585382,-0.857495479 111.55174,-0.549852892 115.27032,0.0609716713 C119.199247,0.706348266 122.598002,1.81869683 125.477771,3.36682476 C128.564213,5.0260571 131.015905,7.31059313 132.839291,10.2135787 C134.649572,13.0957015 135.617153,16.7190136 135.617153,21.1244721 C135.617153,23.0338044 135.343945,24.9665148 134.790345,26.921637 C134.25331,28.8182545 133.514694,30.6265692 132.574892,32.3467431 C131.598546,34.133805 130.41102,35.7130258 129.016415,37.0875166 C130.984358,38.5210566 132.871482,40.0499356 134.546004,41.9034275 C137.557483,45.2367695 139.183774,49.8355382 139.183774,55.8075734 C139.183774,60.292733 138.215974,64.1593042 136.353068,67.4283463 C134.496022,70.6871056 132.00527,73.365979 128.87992,75.4641363 C125.86295,77.4895338 122.304778,78.9905518 118.192753,79.9390602 C114.254202,80.8475536 110.106384,81.3047201 105.748609,81.3047201 L105.748609,81.3047201 L77.9803519,81.3047201 L72.3381393,-0.857495479 Z M105.590599,49.6681075 L98.7441414,49.6681075 L99.4091445,59.8379317 L105.590599,59.8379317 C109.106743,59.8379317 111.802765,59.3869917 113.577669,58.2212823 C114.87011,57.3724421 115.435874,56.0684698 115.435874,54.4015017 C115.435874,53.5483933 115.315714,52.8059072 114.9947,52.1963543 C114.73685,51.7067397 114.338633,51.3312041 113.826002,51.0449101 C112.044392,50.0499155 109.272836,49.6681075 105.590599,49.6681075 Z M104.413759,20.6098846 L96.7873176,20.6094351 L97.4018923,28.9043549 L103.417518,28.9043549 C106.149869,28.9043549 107.479111,28.448628 108.795366,27.4045238 C109.85582,26.5633309 110.329167,25.2862293 110.329167,23.9045018 C110.329167,23.4486087 110.139195,23.0423893 109.898516,22.6852464 C109.475835,22.058031 108.867901,21.5584583 108.272963,21.2176219 C107.116692,20.5552006 106.469815,20.614846 104.413759,20.6098846 Z M166.383947,-0.857495479 L132.838375,-0.857495479 L136.525336,81.3047201 L162.711253,81.3047201 L166.383947,-0.857495479 Z" id="BIG" stroke="url(#linearGradient-1)" stroke-width="6" fill="#FFFFFF"></path>
            <path d="M8.01300813,59.0441252 C9.01897019,59.0441252 9.87750678,58.9757491 10.5886179,58.838997 C11.299729,58.7022448 11.898103,58.5313046 12.3837398,58.3261764 L12.3837398,58.3261764 L11.3430894,51.864638 C11.1349593,51.933014 10.9701897,51.9672021 10.8487805,51.9672021 L10.8487805,51.9672021 L10.4065041,51.9672021 C10.0943089,51.9672021 9.77344173,51.8133559 9.44390244,51.5056636 C9.11436314,51.1979713 8.9495935,50.5996807 8.9495935,49.7107918 L8.9495935,49.7107918 L8.9495935,22.7364328 L-1.47885317e-14,22.7364328 L-1.47885317e-14,49.4030995 C-1.47885317e-14,50.838997 0.130081301,52.1466893 0.390243902,53.3261764 C0.650406504,54.5056636 1.09268293,55.5227576 1.71707317,56.3774585 C2.34146341,57.2321593 3.16531165,57.890279 4.18861789,58.3518175 C5.21192412,58.8133559 6.48672087,59.0441252 8.01300813,59.0441252 Z M16.8065041,29.6082277 C18.2634146,29.6082277 19.4601626,29.1979713 20.396748,28.3774585 C21.3333333,27.5569457 21.801626,26.4971166 21.801626,25.1979713 C21.801626,23.898826 21.3333333,22.838997 20.396748,22.0184841 C19.4601626,21.1979713 18.2634146,20.7877149 16.8065041,20.7877149 C15.3495935,20.7877149 14.1528455,21.1979713 13.2162602,22.0184841 C12.2796748,22.838997 11.8113821,23.898826 11.8113821,25.1979713 C11.8113821,26.4971166 12.2796748,27.5569457 13.2162602,28.3774585 C14.1528455,29.1979713 15.3495935,29.6082277 16.8065041,29.6082277 Z M21.2813008,58.4287405 L21.2813008,32.7877149 L12.3317073,32.7877149 L12.3317073,58.4287405 L21.2813008,58.4287405 Z M34.8617886,59.0441252 C36.3186992,59.0441252 37.5327913,58.9415611 38.504065,58.7364328 C39.4753388,58.5313046 40.3078591,58.3261764 41.001626,58.1210482 L41.001626,58.1210482 L39.6487805,51.7620739 C39.3365854,51.864638 38.9810298,51.9586551 38.5821138,52.0441252 C38.1831978,52.1295952 37.7756098,52.1723303 37.3593496,52.1723303 C36.5268293,52.1723303 35.798374,51.907373 35.1739837,51.3774585 C34.5495935,50.847544 34.2373984,49.864638 34.2373984,48.4287405 L34.2373984,48.4287405 L34.2373984,39.6595098 L40.1691057,39.6595098 L40.1691057,32.7877149 L34.2373984,32.7877149 L34.2373984,26.1210482 L26.8487805,26.1210482 L25.8081301,32.7877149 L21.8536585,33.0954072 L21.8536585,39.6595098 L25.2878049,39.6595098 L25.2878049,48.5825867 C25.2878049,50.1552363 25.4699187,51.5825867 25.8341463,52.864638 C26.198374,54.1466893 26.7707317,55.2492534 27.5512195,56.1723303 C28.3317073,57.0954072 29.3203252,57.8048089 30.5170732,58.3005354 C31.7138211,58.7962619 33.1620596,59.0441252 34.8617886,59.0441252 Z M52.500813,59.0441252 C53.9577236,59.0441252 55.1718157,58.9415611 56.1430894,58.7364328 C57.1143631,58.5313046 57.9468835,58.3261764 58.6406504,58.1210482 L58.6406504,58.1210482 L57.2878049,51.7620739 C56.9756098,51.864638 56.6200542,51.9586551 56.2211382,52.0441252 C55.8222222,52.1295952 55.4146341,52.1723303 54.998374,52.1723303 C54.1658537,52.1723303 53.4373984,51.907373 52.8130081,51.3774585 C52.1886179,50.847544 51.8764228,49.864638 51.8764228,48.4287405 L51.8764228,48.4287405 L51.8764228,39.6595098 L57.8081301,39.6595098 L57.8081301,32.7877149 L51.8764228,32.7877149 L51.8764228,26.1210482 L44.4878049,26.1210482 L43.4471545,32.7877149 L39.4926829,33.0954072 L39.4926829,39.6595098 L42.9268293,39.6595098 L42.9268293,48.5825867 C42.9268293,50.1552363 43.1089431,51.5825867 43.4731707,52.864638 C43.8373984,54.1466893 44.4097561,55.2492534 45.1902439,56.1723303 C45.9707317,57.0954072 46.9593496,57.8048089 48.1560976,58.3005354 C49.3528455,58.7962619 50.801084,59.0441252 52.500813,59.0441252 Z M66.3934959,59.0441252 C67.399458,59.0441252 68.2579946,58.9757491 68.9691057,58.838997 C69.6802168,58.7022448 70.2785908,58.5313046 70.7642276,58.3261764 L70.7642276,58.3261764 L69.7235772,51.864638 C69.5154472,51.933014 69.3506775,51.9672021 69.2292683,51.9672021 L69.2292683,51.9672021 L68.7869919,51.9672021 C68.4747967,51.9672021 68.1539295,51.8133559 67.8243902,51.5056636 C67.4948509,51.1979713 67.3300813,50.5996807 67.3300813,49.7107918 L67.3300813,49.7107918 L67.3300813,22.7364328 L58.3804878,22.7364328 L58.3804878,49.4030995 C58.3804878,50.838997 58.5105691,52.1466893 58.7707317,53.3261764 C59.0308943,54.5056636 59.4731707,55.5227576 60.097561,56.3774585 C60.7219512,57.2321593 61.5457995,57.890279 62.5691057,58.3518175 C63.5924119,58.8133559 64.8672087,59.0441252 66.3934959,59.0441252 Z M82.7837398,59.0441252 C84.2406504,59.0441252 85.8276423,58.7962619 87.5447154,58.3005354 C89.2617886,57.8048089 90.8314363,57.0612192 92.2536585,56.0697662 L92.2536585,56.0697662 L89.3398374,50.838997 C88.403252,51.3518175 87.5100271,51.7364328 86.6601626,51.9928431 C85.8102981,52.2492534 84.9344173,52.3774585 84.0325203,52.3774585 C82.5756098,52.3774585 81.3094851,52.0783132 80.2341463,51.4800226 C79.1588076,50.881732 78.4130081,49.8133559 77.996748,48.2748944 L77.996748,48.2748944 L92.8260163,48.2748944 C92.895393,47.9672021 92.9734417,47.4714756 93.0601626,46.7877149 C93.1468835,46.1039542 93.1902439,45.3689115 93.1902439,44.5825867 C93.1902439,42.873185 92.9560976,41.2663474 92.4878049,39.7620739 C92.0195122,38.2578004 91.3170732,36.9415611 90.3804878,35.8133559 C89.4439024,34.6851508 88.2644986,33.7962619 86.8422764,33.1466893 C85.4200542,32.4971166 83.7550136,32.1723303 81.8471545,32.1723303 C80.2514905,32.1723303 78.7078591,32.4800226 77.2162602,33.0954072 C75.7246612,33.7107918 74.397832,34.5996807 73.2357724,35.7620739 C72.0737127,36.924467 71.1371274,38.3347234 70.4260163,39.9928431 C69.7149051,41.6509628 69.3593496,43.5227576 69.3593496,45.6082277 C69.3593496,47.7278858 69.7062331,49.6253217 70.4,51.3005354 C71.0937669,52.9757491 72.0390244,54.3860055 73.2357724,55.5313046 C74.4325203,56.6766038 75.8460705,57.5483987 77.4764228,58.1466893 C79.1067751,58.7449799 80.8758808,59.0441252 82.7837398,59.0441252 Z M77.8926829,42.5313046 C78.1701897,41.2321593 78.6818428,40.2919884 79.4276423,39.7107918 C80.1734417,39.1295952 81.0493225,38.838997 82.0552846,38.838997 C83.4081301,38.838997 84.3360434,39.2065183 84.8390244,39.9415611 C85.3420054,40.6766038 85.5934959,41.5398517 85.5934959,42.5313046 L77.8926829,42.5313046 Z" id="little" stroke="#FFFFFF" stroke-width="2" fill="url(#linearGradient-2)"></path>
            <path d="M229.173984,59.0441252 C230.630894,59.0441252 231.844986,58.9415611 232.81626,58.7364328 C233.787534,58.5313046 234.620054,58.3261764 235.313821,58.1210482 L235.313821,58.1210482 L233.960976,51.7620739 C233.64878,51.864638 233.293225,51.9586551 232.894309,52.0441252 C232.495393,52.1295952 232.087805,52.1723303 231.671545,52.1723303 C230.839024,52.1723303 230.110569,51.907373 229.486179,51.3774585 C228.861789,50.847544 228.549593,49.864638 228.549593,48.4287405 L228.549593,48.4287405 L228.549593,39.6595098 L234.481301,39.6595098 L234.481301,32.7877149 L228.549593,32.7877149 L228.549593,26.1210482 L221.160976,26.1210482 L220.120325,32.7877149 L216.165854,33.0954072 L216.165854,39.6595098 L219.6,39.6595098 L219.6,48.5825867 C219.6,50.1552363 219.782114,51.5825867 220.146341,52.864638 C220.510569,54.1466893 221.082927,55.2492534 221.863415,56.1723303 C222.643902,57.0954072 223.63252,57.8048089 224.829268,58.3005354 C226.026016,58.7962619 227.474255,59.0441252 229.173984,59.0441252 Z M241.817886,59.0441252 C243.240108,59.0441252 244.532249,58.7620739 245.694309,58.1979713 C246.856369,57.6338687 247.957724,56.890279 248.998374,55.9672021 L248.998374,55.9672021 L249.206504,55.9672021 L249.830894,58.4287405 L257.115447,58.4287405 L257.115447,44.1723303 C257.115447,39.9672021 256.152846,36.91592 254.227642,35.0184841 C252.302439,33.1210482 249.657453,32.1723303 246.292683,32.1723303 C244.24607,32.1723303 242.286179,32.4629286 240.413008,33.0441252 C238.539837,33.6253217 236.684011,34.4629286 234.845528,35.5569457 L234.845528,35.5569457 L237.96748,41.3005354 C239.320325,40.5825867 240.517073,40.0441252 241.557724,39.6851508 C242.598374,39.3261764 243.586992,39.1466893 244.523577,39.1466893 C246.743631,39.1466893 247.957724,40.0355781 248.165854,41.8133559 C243.170732,42.3261764 239.563144,43.3432705 237.343089,44.864638 C235.123035,46.3860055 234.013008,48.4800226 234.013008,51.1466893 C234.013008,52.2065183 234.18645,53.2150653 234.533333,54.1723303 C234.880217,55.1295952 235.39187,55.9672021 236.068293,56.6851508 C236.744715,57.4030995 237.568564,57.9757491 238.539837,58.4030995 C239.511111,58.8304499 240.603794,59.0441252 241.817886,59.0441252 Z M244.939837,52.2748944 C243.344173,52.2748944 242.546341,51.6595098 242.546341,50.4287405 C242.546341,49.7107918 242.945257,49.0441252 243.743089,48.4287405 C244.540921,47.8133559 246.015176,47.3518175 248.165854,47.0441252 L248.165854,47.0441252 L248.165854,50.5313046 C247.680217,51.0441252 247.203252,51.4629286 246.734959,51.7877149 C246.266667,52.1125012 245.668293,52.2748944 244.939837,52.2748944 Z M274.234146,59.0441252 C275.62168,59.0441252 276.965854,58.7364328 278.266667,58.1210482 C279.56748,57.5056636 280.720867,56.6082277 281.726829,55.4287405 C282.732791,54.2492534 283.539295,52.7962619 284.146341,51.0697662 C284.753388,49.3432705 285.056911,47.3689115 285.056911,45.1466893 C285.056911,43.1979713 284.814092,41.4201935 284.328455,39.8133559 C283.842818,38.2065183 283.157724,36.838997 282.273171,35.7107918 C281.388618,34.5825867 280.321951,33.7107918 279.073171,33.0954072 C277.82439,32.4800226 276.436856,32.1723303 274.910569,32.1723303 C273.765854,32.1723303 272.638482,32.3945525 271.528455,32.838997 C270.418428,33.2834414 269.412466,33.91592 268.510569,34.7364328 L268.510569,34.7364328 L268.718699,31.0441252 L268.718699,22.7364328 L259.769106,22.7364328 L259.769106,58.4287405 L266.741463,58.4287405 L267.469919,55.6595098 L267.678049,55.6595098 C268.684011,56.7877149 269.742005,57.6338687 270.852033,58.1979713 C271.96206,58.7620739 273.089431,59.0441252 274.234146,59.0441252 Z M272.04878,51.864638 C271.459079,51.864638 270.886721,51.7791679 270.331707,51.6082277 C269.776694,51.4372875 269.239024,51.1125012 268.718699,50.6338687 L268.718699,50.6338687 L268.718699,41.1979713 C269.308401,40.5142106 269.872087,40.0355781 270.409756,39.7620739 C270.947425,39.4885696 271.563144,39.3518175 272.256911,39.3518175 C273.471003,39.3518175 274.381572,39.8133559 274.988618,40.7364328 C275.595664,41.6595098 275.899187,43.1808773 275.899187,45.3005354 C275.899187,47.7620739 275.517615,49.4714756 274.754472,50.4287405 C273.991328,51.3860055 273.089431,51.864638 272.04878,51.864638 Z M294.786992,59.0441252 C295.792954,59.0441252 296.651491,58.9757491 297.362602,58.838997 C298.073713,58.7022448 298.672087,58.5313046 299.157724,58.3261764 L299.157724,58.3261764 L298.117073,51.864638 C297.908943,51.933014 297.744173,51.9672021 297.622764,51.9672021 L297.622764,51.9672021 L297.180488,51.9672021 C296.868293,51.9672021 296.547425,51.8133559 296.217886,51.5056636 C295.888347,51.1979713 295.723577,50.5996807 295.723577,49.7107918 L295.723577,49.7107918 L295.723577,22.7364328 L286.773984,22.7364328 L286.773984,49.4030995 C286.773984,50.838997 286.904065,52.1466893 287.164228,53.3261764 C287.42439,54.5056636 287.866667,55.5227576 288.491057,56.3774585 C289.115447,57.2321593 289.939295,57.890279 290.962602,58.3518175 C291.985908,58.8133559 293.260705,59.0441252 294.786992,59.0441252 Z M311.177236,59.0441252 C312.634146,59.0441252 314.221138,58.7962619 315.938211,58.3005354 C317.655285,57.8048089 319.224932,57.0612192 320.647154,56.0697662 L320.647154,56.0697662 L317.733333,50.838997 C316.796748,51.3518175 315.903523,51.7364328 315.053659,51.9928431 C314.203794,52.2492534 313.327913,52.3774585 312.426016,52.3774585 C310.969106,52.3774585 309.702981,52.0783132 308.627642,51.4800226 C307.552304,50.881732 306.806504,49.8133559 306.390244,48.2748944 L306.390244,48.2748944 L321.219512,48.2748944 C321.288889,47.9672021 321.366938,47.4714756 321.453659,46.7877149 C321.540379,46.1039542 321.58374,45.3689115 321.58374,44.5825867 C321.58374,42.873185 321.349593,41.2663474 320.881301,39.7620739 C320.413008,38.2578004 319.710569,36.9415611 318.773984,35.8133559 C317.837398,34.6851508 316.657995,33.7962619 315.235772,33.1466893 C313.81355,32.4971166 312.148509,32.1723303 310.24065,32.1723303 C308.644986,32.1723303 307.101355,32.4800226 305.609756,33.0954072 C304.118157,33.7107918 302.791328,34.5996807 301.629268,35.7620739 C300.467209,36.924467 299.530623,38.3347234 298.819512,39.9928431 C298.108401,41.6509628 297.752846,43.5227576 297.752846,45.6082277 C297.752846,47.7278858 298.099729,49.6253217 298.793496,51.3005354 C299.487263,52.9757491 300.43252,54.3860055 301.629268,55.5313046 C302.826016,56.6766038 304.239566,57.5483987 305.869919,58.1466893 C307.500271,58.7449799 309.269377,59.0441252 311.177236,59.0441252 Z M313.986992,42.5313046 L306.286179,42.5313046 C306.563686,41.2321593 307.075339,40.2919884 307.821138,39.7107918 C308.566938,39.1295952 309.442818,38.838997 310.44878,38.838997 C311.801626,38.838997 312.729539,39.2065183 313.23252,39.9415611 C313.735501,40.6766038 313.986992,41.5398517 313.986992,42.5313046 L313.986992,42.5313046 Z" id="table" stroke="#FFFFFF" stroke-width="2" fill="url(#linearGradient-3)"></path>
        </g>
    </g>
</svg>